<?xml version="1.0" encoding="iso-8859-1"?>
<!-- Generator: Adobe Illustrator 19.0.0, SVG Export Plug-In . SVG Version: 6.00 Build 0)  -->
<svg version="1.1" id="Layer_1" xmlns="http://www.w3.org/2000/svg" xmlns:xlink="http://www.w3.org/1999/xlink" x="0px" y="0px"
	 viewBox="0 0 496.2 496.2" style="enable-background:new 0 0 496.2 496.2;" xml:space="preserve">
<path style="fill:#FABC3D;" d="M496.2,248.1C496.2,111.1,385.1,0,248.1,0S0,111.1,0,248.1s111.1,248.1,248.1,248.1
	S496.2,385.1,496.2,248.1z"/>
<path style="fill:#232323;" d="M434.5,248.1c0-102.9-83.4-186.4-186.4-186.4c-102.9,0-186.4,83.5-186.4,186.4
	s83.4,186.4,186.4,186.4C351,434.5,434.5,351,434.5,248.1z"/>
<path style="fill:#333333;" d="M421.6,179.8c-19-48.2-57.4-86.5-105.6-105.4l-70.4,168L74.2,315.2c18.8,48.6,57.4,87.4,105.9,106.5
	l71-169.5L421.6,179.8z"/>
<path d="M409.8,246.7h-3c-0.8,0-1.5,0.7-1.5,1.5c0,86.6-70.5,157.1-157.1,157.1c-0.8,0-1.5,0.7-1.5,1.5v3c0,0.8,0.7,1.5,1.5,1.5
	c43.6,0,84.5-17,115.3-47.8s47.8-71.8,47.8-115.3C411.3,247.4,410.7,246.7,409.8,246.7z"/>
<path d="M248.2,379.5c-0.8,0-1.5,0.7-1.5,1.5v3c0,0.8,0.7,1.5,1.5,1.5c75.7,0,137.3-61.6,137.3-137.3c0-0.8-0.7-1.5-1.5-1.5h-3
	c-0.8,0-1.5,0.7-1.5,1.5C379.5,320.6,320.6,379.5,248.2,379.5z"/>
<path d="M246.7,353.9v3c0,0.8,0.7,1.5,1.5,1.5c29.4,0,57-11.5,77.8-32.3c20.8-20.8,32.3-48.5,32.3-77.8c0-0.8-0.7-1.5-1.5-1.5h-3
	c-0.8,0-1.5,0.7-1.5,1.5c0,57.4-46.7,104.1-104.1,104.1C247.4,352.4,246.7,353,246.7,353.9z"/>
<path d="M248.1,91c0.8,0,1.5-0.7,1.5-1.5v-3c0-0.8-0.7-1.5-1.5-1.5c-43.6,0-84.5,17-115.3,47.8S85,204.6,85,248.1
	c0,0.8,0.7,1.5,1.5,1.5h3c0.8,0,1.4-0.6,1.5-1.4c0,0,0-0.1,0-0.2c0-41.9,16.4-81.3,46.1-111C166.8,107.4,206.2,91,248.1,91z"/>
<path d="M248.1,116.8c0.8,0,1.5-0.7,1.5-1.5v-3c0-0.4-0.2-0.8-0.5-1.1c-0.3-0.3-0.6-0.4-1.1-0.4c-75.7,0-137.3,61.6-137.3,137.3
	c0,0.8,0.7,1.5,1.5,1.5h3c0.8,0,1.5-0.7,1.5-1.5c0-35,13.7-68,38.5-92.8C180.1,130.5,213.1,116.8,248.1,116.8z"/>
<path d="M249.6,142.5v-3c0-0.4-0.2-0.8-0.4-1.1c-0.3-0.3-0.7-0.4-1.1-0.4C187.4,138,138,187.4,138,248.1c0,0.8,0.7,1.5,1.5,1.5h3
	c0.8,0,1.5-0.7,1.5-1.5c0-57.4,46.7-104.1,104.1-104.1C248.9,144,249.6,143.3,249.6,142.5z"/>
<path style="fill:#191919;" d="M332.3,248.1c0-46.5-37.7-84.2-84.2-84.2s-84.2,37.7-84.2,84.2s37.7,84.2,84.2,84.2
	S332.3,294.6,332.3,248.1z"/>
<path style="fill:#29C183;" d="M315.8,248.1c0-37.4-30.3-67.7-67.7-67.7s-67.7,30.3-67.7,67.7s30.3,67.7,67.7,67.7
	S315.8,285.5,315.8,248.1z"/>
<circle style="fill:#FFFFFF;" cx="248.1" cy="248.1" r="11.5"/>
<g>
</g>
<g>
</g>
<g>
</g>
<g>
</g>
<g>
</g>
<g>
</g>
<g>
</g>
<g>
</g>
<g>
</g>
<g>
</g>
<g>
</g>
<g>
</g>
<g>
</g>
<g>
</g>
<g>
</g>
</svg>
